<svg height="48pt" viewBox="0 0 48 48" width="48pt" xmlns="http://www.w3.org/2000/svg" xmlns:xlink="http://www.w3.org/1999/xlink"><linearGradient id="a" gradientTransform="matrix(42 0 0 -42 3 45)" gradientUnits="userSpaceOnUse" x1="0" x2=".907488" y1=".5" y2=".920078"><stop offset="0" stop-color="#f7f107"/><stop offset=".83888397938" stop-color="#ffbb24"/></linearGradient><path d="m34.5 44.933c-.158.045-.326.067-.5.067h-26c-2.76 0-5-2.24-5-5v-19c0-1.104.896-2 2-2 1.104 0 2 .896 2 2v17c0 1.656 1.344 3 3 3h24c.174 0 .342.022.5.067.158-.045.326-.067.5-.067h3c1.656 0 3-1.344 3-3v-3c0-1.104.896-2 2-2 1.104 0 2 .896 2 2v5c0 2.76-2.24 5-5 5h-5c-.174 0-.342-.022-.5-.067zm-21.5-37.933c1.104 0 2-.896 2-2 0-1.104-.896-2-2-2h-5c-2.76 0-5 2.24-5 5v5c0 1.104.896 2 2 2 1.104 0 2-.896 2-2v-3c0-1.656 1.344-3 3-3zm28 19c0 1.104.896 2 2 2 1.104 0 2-.896 2-2v-18c0-2.76-2.24-5-5-5h-18c-1.104 0-2 .896-2 2 0 1.104.896 2 2 2h16c1.656 0 3 1.344 3 3zm-23.767.6 2.914-5.243c-.773-.175-1.347-.863-1.347-1.69v-5.2c0-.961.773-1.734 1.733-1.734h6.934c.96 0 1.733.773 1.733 1.734v5.2c0 .926-.72 1.678-1.633 1.73l2.601 5.203h5.099c.96 0 1.733.773 1.733 1.733v5.2c0 .961-.773 1.734-1.733 1.734h-6.934c-.96 0-1.733-.773-1.733-1.734v-5.2c0-.926.72-1.679 1.633-1.73l-2.603-5.203h-3.531l-2.888 5.2h.456c.96 0 1.733.773 1.733 1.733v5.2c0 .961-.773 1.734-1.733 1.734h-6.934c-.96 0-1.733-.773-1.733-1.734v-5.2c0-.96.773-1.733 1.733-1.733z" fill="url(#a)" fill-rule="evenodd"/></svg>